<?xml version="1.0" standalone="no"?>
<!DOCTYPE svg PUBLIC "-//W3C//DTD SVG 20010904//EN"
 "http://www.w3.org/TR/2001/REC-SVG-20010904/DTD/svg10.dtd">
<svg version="1.0" xmlns="http://www.w3.org/2000/svg"
 width="875.000000pt" height="1241.000000pt" viewBox="0 0 875.000000 1241.000000"
 preserveAspectRatio="xMidYMid meet">
<g transform="translate(0.000000,1241.000000) scale(0.100000,-0.100000)"
fill="#000000" stroke="none">
<path d="M4485 7635 c-343 -76 -806 -396 -1243 -860 l-113 -120 39 -3 c37 -3
43 1 103 65 321 346 661 613 972 764 149 72 256 103 362 103 70 1 86 -3 127
-26 64 -38 88 -90 88 -190 0 -573 -1046 -1733 -1780 -1973 -67 -22 -105 -28
-180 -29 -117 -1 -164 18 -195 82 -17 36 -24 41 -53 42 -30 0 -33 -2 -26 -22
21 -71 74 -125 148 -153 71 -27 214 -17 335 24 564 190 1347 924 1674 1568
133 263 172 466 115 603 -48 113 -199 164 -373 125z m255 -40 c47 -24 90 -66
90 -88 0 -7 5 -18 12 -25 6 -6 9 -15 5 -18 -4 -4 -8 -5 -9 -3 -2 2 -12 22 -23
44 -85 168 -388 129 -759 -97 -241 -148 -431 -301 -679 -550 -99 -99 -181
-177 -184 -174 -7 7 359 372 412 411 22 16 47 37 55 45 8 9 35 31 60 50 25 19
52 40 60 47 57 45 111 83 119 83 4 0 16 9 26 20 10 11 24 20 32 20 7 0 13 5
13 10 0 6 7 10 15 10 8 0 15 5 15 10 0 6 7 10 15 10 8 0 15 3 15 8 0 4 10 12
23 18 12 6 69 35 127 65 260 134 437 167 560 104z m117 -247 c-2 -13 -4 -3 -4
22 0 25 2 35 4 23 2 -13 2 -33 0 -45z m-12 -90 c-8 -59 -21 -112 -37 -148 -9
-19 -21 -51 -29 -70 -45 -123 -195 -373 -332 -555 -194 -256 -454 -521 -724
-737 -176 -142 -396 -278 -561 -349 -51 -22 -52 -22 -52 -9 0 6 5 10 11 10 17
0 176 78 248 122 34 21 65 38 67 38 3 0 10 5 17 10 28 24 83 61 100 66 9 4 17
9 17 13 0 3 18 17 40 31 22 14 40 28 40 32 0 5 6 8 13 8 6 0 27 14 45 31 17
16 32 27 32 23 0 -3 8 3 18 14 9 11 58 55 107 97 98 85 330 316 410 409 66 76
165 205 264 341 56 77 209 343 216 375 3 17 21 62 40 105 13 28 26 70 30 95 8
52 15 80 20 80 2 0 2 -15 0 -32z m-2194 -1837 c41 -59 97 -81 205 -81 66 0
109 6 167 24 42 13 77 20 77 16 0 -12 -93 -39 -182 -52 -137 -21 -236 13 -290
100 -28 45 -9 40 23 -7z"/>
<path d="M3830 6970 c-332 -40 -602 -312 -640 -646 -22 -197 44 -414 167 -554
l40 -44 87 68 c253 197 282 235 196 248 -80 12 -197 9 -202 -4 -5 -13 14 -137
26 -176 6 -19 4 -22 -17 -22 -28 0 -29 2 -48 125 -7 44 -16 85 -21 91 -4 6
-32 14 -61 18 -28 3 -63 9 -76 12 -22 7 -23 5 -16 -27 4 -19 20 -62 36 -96 29
-65 24 -88 -10 -54 -53 53 -88 295 -62 420 18 80 21 91 31 91 5 0 7 -7 4 -15
-7 -18 -8 -18 75 -4 76 13 91 22 91 55 0 13 7 60 16 104 9 45 14 83 12 85 -3
3 -26 -2 -52 -11 -26 -9 -49 -15 -51 -13 -10 10 35 46 75 59 40 13 47 20 60
61 13 40 54 88 66 77 2 -3 -2 -18 -10 -34 -20 -42 -29 -74 -19 -74 19 1 225
38 227 42 7 8 25 142 20 149 -2 5 -11 6 -19 2 -8 -3 -15 -1 -15 5 0 27 204 50
292 33 85 -16 188 -50 188 -62 0 -6 -9 -7 -22 -3 -13 4 -42 13 -65 20 l-43 13
1 -32 c0 -29 1 -30 9 -9 8 18 14 21 37 16 16 -4 35 -12 43 -20 12 -10 19 -10
39 0 25 14 61 10 61 -5 0 -5 5 -9 10 -9 6 0 16 -4 23 -10 55 -44 87 -73 87
-81 0 -8 -11 -24 -45 -63 -5 -6 -21 -27 -35 -46 -44 -63 -149 -180 -161 -180
-8 0 -16 56 -24 163 -2 31 -1 57 2 57 3 0 41 -7 85 -16 88 -18 109 -11 101 31
-4 20 -14 26 -58 36 -29 6 -59 9 -66 6 -19 -6 1 -14 64 -22 42 -6 47 -9 47
-31 0 -19 -4 -24 -17 -20 -28 8 -135 26 -155 26 -16 0 -18 -9 -17 -67 4 -226
19 -237 134 -97 44 53 102 126 130 162 l50 65 -50 44 c-133 118 -365 186 -555
163z m-86 -146 c-7 -57 -10 -59 -97 -70 -23 -3 -53 -7 -65 -10 -23 -5 -24 -3
-17 35 4 24 2 41 -4 46 -6 3 -11 10 -11 15 0 11 66 47 130 70 l45 16 13 -25
c9 -17 11 -42 6 -77z m-264 -44 c0 -34 -32 -69 -76 -84 l-47 -16 23 28 c32 36
83 81 93 82 4 0 7 -5 7 -10z m-116 -183 c8 -3 18 -2 21 3 4 6 15 10 27 10 16
0 19 -5 15 -22 -3 -13 -9 -48 -12 -79 -4 -31 -10 -60 -13 -66 -9 -13 -120 -24
-127 -13 -3 5 -13 6 -22 3 -14 -5 -15 -1 -10 25 8 40 43 118 70 156 19 27 21
28 28 9 4 -11 14 -23 23 -26z m28 -559 c10 -8 20 -45 28 -96 8 -50 20 -92 32
-107 l19 -24 -38 -26 -38 -26 -32 38 c-42 49 -49 70 -29 92 14 15 13 21 -8 67
-43 94 -43 94 6 94 24 0 51 -6 60 -12z m307 -24 c8 -8 -148 -144 -166 -144
-12 0 -36 136 -27 151 5 8 33 10 98 5 50 -4 93 -9 95 -12z"/>
<path d="M3843 6924 c-25 -6 -36 -44 -37 -124 l-1 -45 128 -3 c70 -1 127 1
127 5 0 8 -58 13 -180 16 -55 2 -55 2 -53 32 7 99 13 104 111 105 83 0 94 -6
110 -65 l11 -40 -6 50 c-3 28 -9 54 -14 59 -9 10 -160 17 -196 10z"/>
<path d="M4148 6743 c6 -2 18 -2 25 0 6 3 1 5 -13 5 -14 0 -19 -2 -12 -5z"/>
<path d="M3832 6713 c-43 -6 -49 -22 -53 -158 l-4 -110 153 -3 c133 -2 153 0
159 14 6 17 -10 240 -18 249 -8 7 -198 14 -237 8z m229 -37 c0 -11 2 -63 4
-113 3 -69 1 -93 -8 -93 -68 -2 -208 -2 -229 -1 l-28 1 0 84 c0 47 4 96 10
110 10 28 32 32 173 33 72 1 77 -1 78 -21z"/>
<path d="M3626 6689 c-55 -10 -105 -24 -112 -31 -13 -13 -44 -164 -44 -212 l0
-27 83 6 c151 11 167 14 176 38 13 34 18 240 6 242 -5 1 -55 -6 -109 -16z m94
-76 c0 -64 -12 -138 -23 -150 -3 -3 -51 -7 -107 -10 l-102 -6 6 34 c33 166 32
164 81 174 17 3 53 10 80 14 28 5 53 9 58 10 4 0 7 -29 7 -66z"/>
<path d="M4890 6150 l0 -470 70 0 70 0 0 470 0 470 -70 0 -70 0 0 -470z m111
433 c2 -10 3 -210 1 -445 l-2 -428 -40 0 -40 0 0 233 c0 129 -3 329 -7 445
l-6 212 45 0 c35 0 46 -4 49 -17z"/>
<path d="M2920 6559 c-102 -4 -203 -12 -225 -19 -112 -35 -197 -102 -215 -169
-13 -48 -6 -69 104 -320 42 -96 76 -186 76 -202 0 -18 -10 -36 -31 -53 -30
-26 -33 -26 -195 -26 l-164 0 0 -101 0 -102 218 6 c186 4 227 8 287 27 129 40
212 110 222 188 4 33 -9 70 -91 257 -53 120 -96 227 -96 237 0 62 50 88 170
88 81 0 90 2 90 18 0 11 9 54 20 97 11 43 19 79 18 79 -2 1 -86 -2 -188 -5z
m157 -33 c-3 -7 -11 -39 -18 -70 l-14 -56 -50 -1 c-27 -1 -54 0 -60 1 -21 4
-91 -25 -117 -49 -46 -42 -39 -76 62 -303 111 -250 115 -285 35 -350 -54 -43
-82 -57 -157 -78 -62 -17 -103 -20 -270 -20 l-198 0 0 74 0 74 152 1 c173 2
206 11 233 67 19 40 14 62 -41 179 -18 39 -41 93 -52 120 -11 28 -34 81 -52
119 -41 89 -38 141 10 191 77 79 190 112 399 114 117 1 142 -1 138 -13z"/>
<path d="M4624 6472 c-12 -9 -34 -37 -49 -62 -15 -25 -45 -66 -66 -91 -22 -26
-39 -56 -39 -67 0 -35 18 -70 39 -77 34 -11 184 14 200 33 20 26 8 238 -15
263 -21 23 -43 24 -70 1z m54 -25 c9 -11 15 -90 13 -189 -1 -34 -4 -38 -38
-47 -21 -6 -61 -11 -90 -11 -49 0 -52 1 -58 30 -7 33 -7 35 47 106 21 28 38
56 38 62 0 7 7 12 16 12 8 0 12 5 9 11 -7 11 22 38 41 39 6 0 16 -6 22 -13z"/>
<path d="M3813 6403 l-43 -4 0 -159 c0 -218 -3 -218 187 -29 165 166 172 180
83 191 -59 6 -158 7 -227 1z m253 -34 c9 -15 -250 -274 -265 -265 -12 8 -16
258 -4 269 11 12 261 8 269 -4z"/>
<path d="M3560 6391 c-41 -3 -80 -9 -86 -13 -31 -21 -27 -273 5 -282 9 -3 69
-8 134 -12 l118 -6 -3 158 -3 159 -45 1 c-25 1 -79 -2 -120 -5z m144 -154 l-1
-132 -59 3 c-32 1 -83 5 -111 8 l-53 5 0 114 c0 80 4 116 13 122 12 8 182 21
202 15 6 -1 10 -54 9 -135z"/>
<path d="M3297 6360 c-20 -4 -41 -10 -45 -14 -10 -10 -9 -202 1 -212 10 -11
138 -32 155 -26 9 3 12 39 12 133 l0 129 -42 -1 c-24 -1 -60 -5 -81 -9z m103
-49 c0 -22 -4 -51 -10 -66 -5 -14 -6 -24 -2 -21 4 2 9 -18 10 -46 l2 -50 -37
6 c-99 17 -91 10 -95 87 -2 39 0 78 3 87 3 9 26 22 50 28 75 20 79 19 79 -25z"/>
<path d="M2913 6283 c-15 -5 -17 -23 -4 -23 5 0 11 7 15 15 3 8 4 15 3 14 -1
0 -8 -3 -14 -6z"/>
<path d="M5220 6233 l0 -58 246 0 246 0 24 -28 c23 -27 24 -34 24 -173 l0
-144 -205 0 c-218 0 -251 6 -261 47 -9 36 3 68 31 81 17 8 86 12 190 12 l165
0 0 58 0 57 -217 -5 c-231 -5 -244 -8 -282 -56 -18 -23 -21 -41 -21 -124 0
-83 3 -101 21 -124 39 -50 44 -51 387 -56 l322 -5 0 230 c0 262 -5 282 -76
319 -36 19 -59 21 -316 24 l-278 3 0 -58z m578 14 c67 -36 72 -57 72 -294 l0
-213 -297 0 c-385 1 -393 4 -393 160 0 148 26 162 287 158 l186 -3 4 -27 4
-28 -145 0 c-198 0 -246 -19 -246 -100 0 -51 25 -78 86 -90 77 -16 386 -9 407
9 14 11 17 36 17 158 0 157 -9 190 -57 212 -15 7 -108 11 -248 11 l-225 0 0
28 c0 16 2 31 4 33 3 2 118 4 258 4 224 0 257 -2 286 -18z"/>
<path d="M6157 6276 c-21 -8 -48 -22 -59 -33 -43 -38 -48 -70 -48 -305 l0
-223 66 1 66 2 -2 194 c0 108 4 206 9 221 15 38 65 49 209 45 l122 -3 0 58 0
57 -162 0 c-111 -1 -175 -5 -201 -14z m338 -46 l0 -25 -135 -5 c-148 -5 -183
-18 -194 -70 -4 -20 -16 -294 -16 -372 0 -14 -9 -18 -40 -18 l-40 0 3 213 c3
307 3 308 262 304 l160 -2 0 -25z"/>
<path d="M4411 6204 c-17 -21 -29 -39 -27 -41 11 -11 54 19 60 42 10 41 2 40
-33 -1z"/>
<path d="M4543 6143 c-23 -2 -46 -10 -53 -18 -10 -12 -20 -74 -36 -231 -4 -36
-3 -64 3 -67 5 -4 40 4 77 16 66 21 69 23 97 79 34 67 80 208 73 220 -5 8 -78
8 -161 1z m111 -19 c27 -11 16 -63 -36 -172 -32 -66 -68 -92 -125 -92 -22 0
-25 3 -19 28 3 15 10 63 16 107 18 132 13 123 73 128 28 2 57 4 64 5 6 1 18
-1 27 -4z"/>
<path d="M4207 5978 c-84 -84 -147 -156 -147 -166 0 -23 35 -56 49 -48 5 4 64
13 130 21 136 17 147 20 156 43 11 26 43 265 38 278 -2 7 -21 14 -42 16 -36 3
-41 -1 -184 -144z m200 58 c-11 -119 -28 -196 -46 -205 -22 -12 -159 -31 -222
-31 -42 0 -49 3 -49 20 0 11 23 39 58 67 31 26 91 85 132 130 61 67 81 83 104
83 l29 0 -6 -64z"/>
<path d="M4495 5793 c-61 -18 -68 -25 -89 -87 -23 -72 -22 -72 62 0 42 36 88
92 81 98 -2 2 -26 -3 -54 -11z m-30 -53 c-10 -11 -20 -18 -23 -15 -7 6 18 35
31 35 5 0 2 -9 -8 -20z"/>
<path d="M4006 5784 c-11 -7 -17 -16 -15 -19 3 -3 14 2 25 9 10 8 17 17 14 19
-3 3 -14 -1 -24 -9z"/>
<path d="M4309 5755 c-3 -2 -50 -9 -105 -15 -154 -17 -139 -6 -153 -110 -15
-109 -9 -124 48 -114 54 10 205 72 229 95 23 21 57 122 47 139 -6 10 -57 14
-66 5z m41 -42 c-1 -37 -36 -86 -75 -107 -44 -24 -166 -66 -192 -66 -14 0 -15
10 -10 72 3 39 10 75 15 80 5 5 56 15 113 22 145 19 149 19 149 -1z"/>
<path d="M3895 5690 c-27 -23 -51 -45 -53 -50 -2 -4 -36 -29 -77 -56 -61 -40
-72 -51 -61 -62 18 -18 191 -36 245 -25 51 10 55 17 65 130 7 77 2 90 -39 98
-25 5 -39 -1 -80 -35z m93 -42 c2 -26 -2 -65 -8 -87 l-11 -41 -87 1 c-139 2
-152 11 -82 59 19 13 59 46 89 72 70 64 95 63 99 -4z"/>
<path d="M3542 5451 l-43 -28 1 -255 c0 -149 -4 -266 -9 -282 -19 -48 -66 -67
-154 -64 -75 3 -80 5 -108 36 l-29 32 0 196 c0 183 -1 196 -17 189 -10 -3 -31
-9 -46 -12 l-28 -6 3 -183 c3 -167 5 -185 24 -211 42 -56 77 -68 206 -68 80 0
121 4 130 13 17 17 31 15 24 -3 -4 -12 4 -15 44 -15 l50 0 0 345 c0 190 -1
345 -2 344 -2 0 -22 -13 -46 -28z m15 -331 c0 -300 0 -300 -22 -300 -34 0 -45
18 -29 48 11 21 14 84 14 283 0 141 3 259 7 262 3 4 12 7 19 7 9 0 12 -70 11
-300z m-382 -115 c-2 -50 2 -95 10 -120 18 -50 10 -58 -21 -22 -23 27 -24 33
-24 202 0 130 3 174 13 178 15 5 27 -122 22 -238z"/>
<path d="M4047 5230 c-4 -17 0 -20 29 -20 27 0 34 4 34 20 0 15 -7 20 -29 20
-20 0 -30 -6 -34 -20z"/>
<path d="M3670 4970 l0 -190 30 0 30 0 0 149 c0 142 1 151 23 177 19 21 32 27
67 27 35 0 48 -6 67 -27 22 -26 23 -35 23 -177 l0 -149 30 0 30 0 0 148 c0
165 -7 188 -60 214 -38 20 -114 24 -154 8 -17 -6 -26 -6 -26 0 0 6 -13 10 -30
10 l-30 0 0 -190z m44 147 c0 -9 -1 -69 -2 -134 -1 -64 -4 -114 -7 -111 -11
10 -10 268 0 265 6 -2 10 -11 9 -20z m235 -177 c0 -58 -4 -112 -9 -120 -6 -10
-9 33 -9 130 1 88 4 135 9 120 4 -14 8 -72 9 -130z"/>
<path d="M4050 4970 l0 -190 30 0 30 0 0 190 0 190 -30 0 -30 0 0 -190z m27
-92 c-2 -29 -3 -6 -3 52 0 58 1 81 3 53 2 -29 2 -77 0 -105z"/>
<path d="M4180 5025 c0 -147 11 -192 52 -218 55 -36 168 -30 220 12 22 18 23
26 28 180 l5 161 -32 0 -33 0 0 -154 0 -155 -26 -20 c-49 -38 -125 -21 -144
32 -5 16 -10 90 -10 163 l0 134 -30 0 -30 0 0 -135z m37 -102 c-2 -37 -3 -9
-3 62 0 72 1 102 3 68 2 -34 2 -93 0 -130z m240 5 c-2 -35 -3 -7 -3 62 0 69 1
97 3 63 2 -35 2 -91 0 -125z"/>
<path d="M4623 5145 c-53 -23 -65 -61 -61 -185 3 -99 5 -111 27 -134 51 -54
182 -59 241 -9 40 33 40 63 1 63 -22 0 -30 -6 -35 -24 -7 -30 -55 -50 -103
-43 -51 9 -66 27 -71 91 l-4 56 121 0 121 0 0 63 c0 70 -14 98 -60 122 -36 19
-134 19 -177 0z m163 -42 c7 -10 14 -40 14 -68 l0 -50 -90 0 -90 0 0 46 c0 79
48 117 124 97 15 -4 34 -15 42 -25z m42 -28 c-3 -3 -9 2 -12 12 -6 14 -5 15 5
6 7 -7 10 -15 7 -18z m12 -51 c0 -8 -5 -12 -10 -9 -6 4 -8 11 -5 16 9 14 15
11 15 -7z m-237 -97 c1 -42 -1 -73 -5 -69 -11 11 -13 161 -2 150 3 -3 6 -40 7
-81z"/>
<path d="M4940 4970 l0 -190 30 0 30 0 0 153 c0 140 2 155 20 175 27 28 98 34
127 10 8 -7 19 -5 33 5 21 14 21 15 -11 26 -40 14 -124 14 -150 1 -13 -7 -19
-7 -19 0 0 5 -13 10 -30 10 l-30 0 0 -190z m41 114 c-6 -22 -12 -88 -13 -149
-2 -94 -3 -99 -6 -35 -5 102 7 245 20 232 6 -6 6 -23 -1 -48z"/>
<path d="M5278 5144 c-30 -16 -48 -43 -48 -72 0 -33 38 -70 108 -102 83 -40
112 -65 112 -101 0 -36 -33 -59 -82 -59 -38 0 -78 27 -78 53 0 6 -13 12 -30
13 -23 1 -30 -3 -30 -17 0 -50 87 -85 178 -74 68 8 102 38 102 89 0 40 -32 71
-113 106 -97 43 -131 95 -87 135 38 35 140 16 140 -25 0 -16 7 -20 34 -20 34
0 35 1 25 29 -6 18 -24 36 -44 45 -42 20 -150 20 -187 0z m-21 -76 c-3 -8 -6
-5 -6 6 -1 11 2 17 5 13 3 -3 4 -12 1 -19z"/>
<path d="M5653 5145 c-53 -23 -65 -61 -61 -185 3 -99 5 -111 27 -134 51 -54
182 -59 241 -9 40 33 40 63 1 63 -22 0 -30 -6 -35 -24 -7 -30 -55 -50 -103
-43 -51 9 -66 27 -71 91 l-4 56 121 0 121 0 0 63 c0 70 -14 98 -60 122 -36 19
-134 19 -177 0z m122 -15 c31 0 55 -42 55 -94 l0 -51 -90 0 -90 0 0 46 c0 69
46 117 98 103 8 -2 20 -4 27 -4z m-146 -218 c-7 -65 -11 -33 -10 78 0 99 3
111 10 42 3 -35 3 -89 0 -120z m228 156 c-3 -8 -6 -5 -6 6 -1 11 2 17 5 13 3
-3 4 -12 1 -19z m13 -38 c0 -11 -4 -20 -10 -20 -5 0 -10 9 -10 20 0 11 5 20
10 20 6 0 10 -9 10 -20z m-5 -40 c3 -5 1 -10 -4 -10 -6 0 -11 5 -11 10 0 6 2
10 4 10 3 0 8 -4 11 -10z"/>
</g>
</svg>
